<!-- Generated by IcoMoon.io -->
<svg version="1.1" xmlns="http://www.w3.org/2000/svg" width="1024" height="1024" viewBox="0 0 1024 1024">
<title></title>
<g id="icomoon-ignore">
</g>
<path fill="#000" d="M415.6 41.46c-186.9 36.64-337.4 187.32-374 374.2-55.28 281.8 137.3 532.4 398.2 570.2 38.020 5.776 72.34-24.52 72.34-62.98v-1.326c0-31.48-22.88-57.76-53.68-62.48-168.7-25.96-298.4-172.26-298.4-348.4 0-205.8 177.22-371 386.8-350.8 183.080 17.738 317.2 182.5 317.2 366.4v32.32c0 44.18-35.88 80.1-80 80.1s-80.020-35.92-80.020-80.1v-240.2c0-17.694-14.322-32.040-32.020-32.040l-63.96 0.007c-14.598 0-26.4 9.984-30.24 23.36-49.7-24.3-108.48-32.76-172.12-10.212-77.5 27.46-136.24 97.82-147.44 179.28-18.966 138.020 87.62 256 221.8 256 52.88 0 100.86-19.088 139.18-49.76 48 62.6 130.46 97.38 218.8 74.98 92.36-21.409 153.96-111.809 152.16-205.609v-41.8c0-298.4-267.8-531.264-574.6-471.14zM478.2 608.6c-52.94 0-96-43.12-96-96.1s43.060-96.1 96-96.1 96 43.12 96 96.1-41.2 96.1-96 96.1z"></path>
</svg>
